<svg id="visual" viewBox="0 0 960 540" width="960" height="540" xmlns="http://www.w3.org/2000/svg" xmlns:xlink="http://www.w3.org/1999/xlink" version="1.1"><rect x="0" y="0" width="960" height="540" fill="#4B00C5"></rect><path d="M0 328L22.8 338.2C45.7 348.3 91.3 368.7 137 378.2C182.7 387.7 228.3 386.3 274 385.8C319.7 385.3 365.3 385.7 411.2 382.7C457 379.7 503 373.3 548.8 362.3C594.7 351.3 640.3 335.7 686 330.2C731.7 324.7 777.3 329.3 823 342.7C868.7 356 914.3 378 937.2 389L960 400L960 541L937.2 541C914.3 541 868.7 541 823 541C777.3 541 731.7 541 686 541C640.3 541 594.7 541 548.8 541C503 541 457 541 411.2 541C365.3 541 319.7 541 274 541C228.3 541 182.7 541 137 541C91.3 541 45.7 541 22.8 541L0 541Z" fill="#6100ff"></path><path d="M0 385L22.8 385.5C45.7 386 91.3 387 137 389.7C182.7 392.3 228.3 396.7 274 392C319.7 387.3 365.3 373.7 411.2 370.8C457 368 503 376 548.8 386.2C594.7 396.3 640.3 408.7 686 409.2C731.7 409.7 777.3 398.3 823 399.2C868.7 400 914.3 413 937.2 419.5L960 426L960 541L937.2 541C914.3 541 868.7 541 823 541C777.3 541 731.7 541 686 541C640.3 541 594.7 541 548.8 541C503 541 457 541 411.2 541C365.3 541 319.7 541 274 541C228.3 541 182.7 541 137 541C91.3 541 45.7 541 22.8 541L0 541Z" fill="#7a33ff"></path><path d="M0 424L22.8 429.3C45.7 434.7 91.3 445.3 137 450.2C182.7 455 228.3 454 274 452.5C319.7 451 365.3 449 411.2 445.7C457 442.3 503 437.7 548.8 430.8C594.7 424 640.3 415 686 416.8C731.7 418.7 777.3 431.3 823 436C868.7 440.7 914.3 437.3 937.2 435.7L960 434L960 541L937.2 541C914.3 541 868.7 541 823 541C777.3 541 731.7 541 686 541C640.3 541 594.7 541 548.8 541C503 541 457 541 411.2 541C365.3 541 319.7 541 274 541C228.3 541 182.7 541 137 541C91.3 541 45.7 541 22.8 541L0 541Z" fill="#8f50ff"></path><path d="M0 471L22.8 469.5C45.7 468 91.3 465 137 464.7C182.7 464.3 228.3 466.7 274 465.2C319.7 463.7 365.3 458.3 411.2 461.2C457 464 503 475 548.8 472C594.7 469 640.3 452 686 444C731.7 436 777.3 437 823 440.2C868.7 443.3 914.3 448.7 937.2 451.3L960 454L960 541L937.2 541C914.3 541 868.7 541 823 541C777.3 541 731.7 541 686 541C640.3 541 594.7 541 548.8 541C503 541 457 541 411.2 541C365.3 541 319.7 541 274 541C228.3 541 182.7 541 137 541C91.3 541 45.7 541 22.8 541L0 541Z" fill="#a169ff"></path><path d="M0 489L22.8 486.8C45.7 484.7 91.3 480.3 137 477.5C182.7 474.7 228.3 473.3 274 477.2C319.7 481 365.3 490 411.2 495.3C457 500.7 503 502.3 548.8 505.2C594.7 508 640.3 512 686 510.3C731.7 508.7 777.3 501.3 823 495C868.7 488.7 914.3 483.3 937.2 480.7L960 478L960 541L937.2 541C914.3 541 868.7 541 823 541C777.3 541 731.7 541 686 541C640.3 541 594.7 541 548.8 541C503 541 457 541 411.2 541C365.3 541 319.7 541 274 541C228.3 541 182.7 541 137 541C91.3 541 45.7 541 22.8 541L0 541Z" fill="#b181ff"></path></svg>